<?xml version="1.0" encoding="utf-8"?>
<!-- Generator: Adobe Illustrator 25.2.1, SVG Export Plug-In . SVG Version: 6.00 Build 0)  -->
<svg version="1.1" id="Layer_1" xmlns="http://www.w3.org/2000/svg" xmlns:xlink="http://www.w3.org/1999/xlink" x="0px" y="0px"
	 viewBox="0 0 336.3 308.7" style="enable-background:new 0 0 336.3 308.7;" xml:space="preserve">
<style type="text/css">
	.st0{fill:#FBD400;}
	.st1{fill:#F3DD0A;}
</style>
<path class="st0" d="M261.4,63l74.9-63L165.7,1.8L65.4,115.5l53.5-0.6c-0.2,0.6-0.5,1.2-0.7,1.9L36.6,214l47.4-0.5L0,308.7
	L144.9,229c41.8,37.9,106.5,34.7,144.3-7.2s34.7-106.5-7.2-144.3C275.8,71.8,268.9,67,261.4,63L261.4,63z M213.6,239.9
	c-47.8,0-86.5-38.7-86.5-86.5c0-47.8,38.7-86.5,86.5-86.5c47.8,0,86.5,38.7,86.5,86.5C300.1,201.1,261.4,239.8,213.6,239.9z"/>
<path class="st1" d="M279.8,169.3c-0.2,0-0.4,0-0.7-0.1c-2.1-0.4-3.6-2.4-3.2-4.5c2.6-15.2-0.1-31.1-7.5-43.6
	c-7.4-12.3-18.6-21.8-32-27.1c-2.1-0.7-3.2-2.9-2.5-4.9s2.9-3.2,4.9-2.5c0.9,0.3,22.6,7.4,36.4,30.6c8.3,14.1,11.4,31.9,8.5,48.9
	C283.4,168,281.7,169.4,279.8,169.3z"/>
</svg>
